#N canvas 922 22 450 300 10;
#X obj 78 11 bng 15 250 50 0 empty fork empty 17 7 0 10 -262144 -1
-1;
#X obj 92 66 vline~;
#X obj 190 131 *~;
#X obj 190 183 dac~;
#X obj 287 79 osc~ 440;
#X msg 91 34 1 10 \, 0 3000 10;
#X connect 0 0 5 0;
#X connect 1 0 2 0;
#X connect 2 0 3 0;
#X connect 2 0 3 1;
#X connect 4 0 2 1;
#X connect 5 0 1 0;
