#N canvas 601 22 450 300 10;
#X obj 42 64 noise~;
#X obj 50 111 *~;
#X obj 50 150 hip~ 5;
#X obj 55 204 dac~;
#X obj 109 71 0.05;
#X obj 117 19 bng 15 250 50 0 empty Noise empty 17 7 0 10 -262144 -1
-1;
#X connect 0 0 1 0;
#X connect 1 0 2 0;
#X connect 2 0 3 0;
#X connect 2 0 3 1;
#X connect 4 0 1 1;
#X connect 5 0 4 0;
